<?xml version="1.0" encoding="UTF-8" standalone="no"?>
<!-- Created with Inkscape (http://www.inkscape.org/) -->

<svg
   width="6.1229134mm"
   height="4.6814723mm"
   viewBox="0 0 6.1229134 4.6814723"
   version="1.1"
   id="svg1"
   inkscape:version="1.3.2 (091e20ef0f, 2023-11-25)"
   sodipodi:docname="icon.svg"
   inkscape:export-filename="icon.png"
   inkscape:export-xdpi="200.013"
   inkscape:export-ydpi="200.013"
   xmlns:inkscape="http://www.inkscape.org/namespaces/inkscape"
   xmlns:sodipodi="http://sodipodi.sourceforge.net/DTD/sodipodi-0.dtd"
   xmlns="http://www.w3.org/2000/svg"
   xmlns:svg="http://www.w3.org/2000/svg">
  <sodipodi:namedview
     id="namedview1"
     pagecolor="#ffffff"
     bordercolor="#666666"
     borderopacity="1.0"
     inkscape:showpageshadow="2"
     inkscape:pageopacity="0.0"
     inkscape:pagecheckerboard="0"
     inkscape:deskcolor="#d1d1d1"
     inkscape:document-units="mm"
     inkscape:zoom="35.134874"
     inkscape:cx="11.142775"
     inkscape:cy="11.370469"
     inkscape:window-width="2560"
     inkscape:window-height="1536"
     inkscape:window-x="0"
     inkscape:window-y="2160"
     inkscape:window-maximized="1"
     inkscape:current-layer="layer1" />
  <defs
     id="defs1">
    <clipPath
       clipPathUnits="userSpaceOnUse"
       id="clipPath953-0">
      <path
         d="M 0,296.655 H 595.276 V 0 H 0 Z"
         transform="translate(-376.28971,-45.165301)"
         id="path953-3" />
    </clipPath>
    <clipPath
       clipPathUnits="userSpaceOnUse"
       id="clipPath953-0-5">
      <path
         d="M 0,296.655 H 595.276 V 0 H 0 Z"
         transform="translate(-376.28971,-45.165301)"
         id="path953-3-6" />
    </clipPath>
    <clipPath
       clipPathUnits="userSpaceOnUse"
       id="clipPath955-1">
      <path
         d="M 0,296.655 H 595.276 V 0 H 0 Z"
         transform="translate(-369.01191,-44.491801)"
         id="path955-2" />
    </clipPath>
    <clipPath
       clipPathUnits="userSpaceOnUse"
       id="clipPath957-7">
      <path
         d="M 0,296.655 H 595.276 V 0 H 0 Z"
         transform="translate(-369.01191,-42.735901)"
         id="path957-7" />
    </clipPath>
    <clipPath
       clipPathUnits="userSpaceOnUse"
       id="clipPath959-9">
      <path
         d="M 0,296.655 H 595.276 V 0 H 0 Z"
         transform="translate(-368.18771,-40.979904)"
         id="path959-8" />
    </clipPath>
  </defs>
  <g
     inkscape:label="Layer 1"
     inkscape:groupmode="layer"
     id="layer1"
     transform="translate(-126.59343,-76.765412)">
    <rect
       style="fill:#36b4ce;fill-opacity:1;stroke-width:0.04;stroke-linecap:round;stroke-linejoin:round"
       id="rect1"
       width="1.8632654"
       height="2.5745711"
       x="57.509838"
       y="136.45407"
       rx="1.5093799"
       ry="1.5991118"
       transform="rotate(-35.569542)" />
    <rect
       style="fill:#ce3678;fill-opacity:1;stroke-width:0.0303101;stroke-linecap:round;stroke-linejoin:round"
       id="rect1-0"
       width="1.7229375"
       height="1.761651"
       x="-144.80643"
       y="70.13591"
       rx="0.60921901"
       ry="0.79033107"
       transform="matrix(-0.50182654,-0.86496828,0.78432005,-0.62035639,0,0)" />
    <rect
       style="fill:#cece36;fill-opacity:1;stroke-width:0.0332805;stroke-linecap:round;stroke-linejoin:round"
       id="rect2"
       width="1.5784167"
       height="2.1038644"
       x="-152.50925"
       y="-12.395375"
       rx="1.4415019"
       ry="1.5329636"
       transform="matrix(-0.89430236,-0.44746317,0.4948961,-0.86895216,0,0)" />
    <g
       id="g2"
       transform="translate(-1.7521481,-0.1362952)">
      <path
         id="path952-7-9"
         d="m -2.1821446,0.6535263 v -3.8318848 c 0,-0.796 -0.653,-1.444 -1.45,-1.444 H -7.636 -9.295 -10.071 c -0.796,0 -1.405999,0.6492171 -1.45,1.444 l -0.07477,1.1486798 -2.836499,2.66513458 2.911269,0.0180704 c 0,0.79600002 0.654,1.45000002 1.45,1.45000002 h 6.4388554 c 0.797,0 1.45,-0.654 1.45,-1.45000002"
         style="fill:#ffffff;fill-opacity:1;fill-rule:nonzero;stroke:#1d1d1b;stroke-width:1;stroke-linecap:butt;stroke-linejoin:round;stroke-miterlimit:10;stroke-dasharray:none;stroke-opacity:1"
         transform="matrix(0.35277776,0,0,-0.35277776,135.06191,79.180972)"
         clip-path="url(#clipPath953-0-5)"
         sodipodi:nodetypes="cssccsscccssc" />
      <path
         id="path954-7"
         d="M 0.92871854,0 H -2.588 c -0.26,0 -0.472,0.212 -0.472,0.472 0,0.26 0.212,0.472 0.472,0.472 H 0.92871854 C 1.1887185,0.944 1.4007185,0.732 1.4007185,0.472 1.4007185,0.212 1.1887185,0 0.92871854,0"
         style="fill:#999999;fill-opacity:1;fill-rule:nonzero;stroke:none;stroke-width:1.29167;stroke-linecap:butt;stroke-linejoin:round;stroke-dasharray:none"
         transform="matrix(0.51373256,0,0,-0.51373256,133.11297,79.467244)"
         clip-path="url(#clipPath955-1)"
         sodipodi:nodetypes="csssssc" />
      <path
         id="path956-1"
         d="M 0.01284851,0 H -2.588 c -0.26,0 -0.472,0.212 -0.472,0.472 0,0.26 0.212,0.472 0.472,0.472 h 2.60084851 c 0.26000003,0 0.47200003,-0.212 0.47200003,-0.472 0,-0.26 -0.212,-0.472 -0.47200003,-0.472"
         style="fill:#999999;fill-opacity:1;fill-rule:nonzero;stroke:none;stroke-width:0;stroke-linecap:butt;stroke-linejoin:round;stroke-dasharray:none"
         transform="matrix(0.51373256,0,0,-0.51373256,133.11297,80.1943)"
         clip-path="url(#clipPath957-7)"
         sodipodi:nodetypes="csssssc" />
    </g>
  </g>
</svg>
